# File produced by Open Asset Import Library (http://www.assimp.sf.net)
# (assimp v4.1.3154142419)

mtllib Pista_tenis.mtl

# 116 vertex positions
v  -6.474149227142334 -4.947500228881836 -0.01843286119401455
v  -6.556646823883057 -4.947500228881836 -0.01844144426286221
v  -6.5154128074646 -5.030007362365723 -0.01843596063554287
v  6.60664701461792 -4.947500228881836 -0.01810241304337978
v  6.524149417877197 -4.947500228881836 -0.01809788309037685
v  6.565412998199463 -5.030007362365723 -0.01809859834611416
v  -9.949771881103516 -3.056951999664307 -0.0185318049043417
v  -9.949771881103516 -2.974462032318115 -0.0185318049043417
v  -10.03228187561035 -3.015707015991211 -0.0185327585786581
v  -6.556646823883057 -2.974462032318115 -0.01844144426286221
v  -6.556646823883057 -3.056951999664307 -0.01844144426286221
v  -6.474149227142334 -3.056951999664307 -0.01843286119401455
v  -6.474149227142334 -2.974462032318115 -0.01843286119401455
v  6.524149417877197 -2.974462032318115 -0.01809788309037685
v  6.524149417877197 -3.056951999664307 -0.01809788309037685
v  6.60664701461792 -3.056951999664307 -0.01810241304337978
v  6.60664701461792 -2.974462032318115 -0.01810241304337978
v  9.999771118164063 -2.974462032318115 -0.01801729761064053
v  9.999771118164063 -3.056951999664307 -0.01801729761064053
v  10.0822811126709 -3.015707015991211 -0.0180139597505331
v  -9.949771881103516 2.974461793899536 -0.0185318049043417
v  -9.949771881103516 3.056951999664307 -0.0185318049043417
v  -10.03228187561035 3.015707015991211 -0.0185327585786581
v  -6.474149227142334 3.056951999664307 -0.01843286119401455
v  -6.556646823883057 3.056951999664307 -0.01844144426286221
v  -6.556646823883057 2.974461793899536 -0.01844144426286221
v  -6.474149227142334 2.974461793899536 -0.01843286119401455
v  6.524149417877197 2.974461793899536 -0.01809788309037685
v  6.60664701461792 2.974461793899536 -0.01810241304337978
v  6.60664701461792 3.056951999664307 -0.01810241304337978
v  6.524149417877197 3.056951999664307 -0.01809788309037685
v  9.999771118164063 3.056951999664307 -0.01801729761064053
v  9.999771118164063 2.974461793899536 -0.01801729761064053
v  10.0822811126709 3.015707015991211 -0.0180139597505331
v  -6.556646823883057 4.947500228881836 -0.01844144426286221
v  -6.474149227142334 4.947500228881836 -0.01843286119401455
v  -6.5154128074646 5.030007362365723 -0.01843596063554287
v  6.524149417877197 4.947500228881836 -0.01809788309037685
v  6.60664701461792 4.947500228881836 -0.01810241304337978
v  6.565412998199463 5.030007362365723 -0.01809859834611416
v  0.02499999850988388 -3.056951999664307 -0.01826933398842812
v  0.06625208258628845 -2.974462032318115 -0.01826825924217701
v  -0.01625208556652069 -2.974462032318115 -0.01827038638293743
v  -0.01625208556652069 2.974461793899536 -0.01827038638293743
v  0.06625208258628845 2.974461793899536 -0.01826825924217701
v  0.02499999850988388 3.056951999664307 -0.01826933398842812
v  -6.474149227142334 -2.304228067398071 -0.01843286119401455
v  -6.474149227142334 -2.221728324890137 -0.01843286119401455
v  -6.556646823883057 -2.262989044189453 -0.01844144426286221
v  -6.556646823883057 2.262989044189453 -0.01844144426286221
v  -6.474149227142334 2.221728324890137 -0.01843286119401455
v  -6.474149227142334 2.304227828979492 -0.01843286119401455
v  6.60664701461792 -2.262989044189453 -0.01810241304337978
v  6.524149417877197 -2.221728324890137 -0.01809788309037685
v  6.524149417877197 -2.304228067398071 -0.01809788309037685
v  6.524149417877197 2.304227828979492 -0.01809788309037685
v  6.524149417877197 2.221728324890137 -0.01809788309037685
v  6.60664701461792 2.262989044189453 -0.01810241304337978
v  -0.01625208556652069 -2.221728324890137 -0.01827038638293743
v  -0.01625208556652069 -2.304228067398071 -0.01827038638293743
v  0.06625208258628845 -2.304228067398071 -0.01826825924217701
v  0.06625208258628845 -2.221728324890137 -0.01826825924217701
v  0.06625208258628845 2.221728324890137 -0.01826825924217701
v  0.06625208258628845 2.304227828979492 -0.01826825924217701
v  -0.01625208556652069 2.304227828979492 -0.01827038638293743
v  -0.01625208556652069 2.221728324890137 -0.01827038638293743
v  -3.497497320175171 -2.304228067398071 -0.01836014352738857
v  -3.456245183944702 -2.221728324890137 -0.0183566864579916
v  -3.53874683380127 -2.221728324890137 -0.01836228929460049
v  -3.53874683380127 2.221728324890137 -0.01836228929460049
v  -3.456245183944702 2.221728324890137 -0.0183566864579916
v  -3.497497320175171 2.304227828979492 -0.01836014352738857
v  3.547497749328613 2.304227828979492 -0.01817858777940273
v  3.506245613098145 2.221728324890137 -0.01817727647721767
v  3.588747262954712 2.221728324890137 -0.01817834936082363
v  3.588747262954712 -2.221728324890137 -0.01817834936082363
v  3.506245613098145 -2.221728324890137 -0.01817727647721767
v  3.547497749328613 -2.304228067398071 -0.01817858777940273
v  -0.01625208556652069 0.04125416278839111 -0.01827038638293743
v  -0.01625208556652069 -0.0412541925907135 -0.01827038638293743
v  0.06625208258628845 -0.0412541925907135 -0.01826825924217701
v  0.06625208258628845 0.04125416278839111 -0.01826825924217701
v  -3.456245183944702 -0.0412541925907135 -0.0183566864579916
v  -3.456245183944702 0.04125416278839111 -0.0183566864579916
v  -3.53874683380127 0 -0.01836228929460049
v  3.506245613098145 0.04125416278839111 -0.01817727647721767
v  3.506245613098145 -0.0412541925907135 -0.01817727647721767
v  3.588747262954712 0 -0.01817834936082363
v  -10.03228187561035 -5.030007362365723 -0.0185327585786581
v  -9.949771881103516 -4.947500228881836 -0.0185318049043417
v  9.999771118164063 -4.947500228881836 -0.01801729761064053
v  10.0822811126709 -5.030007362365723 -0.0180139597505331
v  -10.03228187561035 0.04125416278839111 -0.0185327585786581
v  -9.949771881103516 0.04125416278839111 -0.0185318049043417
v  10.0822811126709 -0.0412541925907135 -0.0180139597505331
v  9.999771118164063 -0.0412541925907135 -0.01801729761064053
v  -9.949771881103516 4.947500228881836 -0.0185318049043417
v  -10.03228187561035 5.030007362365723 -0.0185327585786581
v  9.999771118164063 4.947500228881836 -0.01801729761064053
v  10.0822811126709 5.030007362365723 -0.0180139597505331
v  -6.556646823883057 -0.0412541925907135 -0.01844144426286221
v  -6.474149227142334 -0.0412541925907135 -0.01843286119401455
v  6.60664701461792 -0.0412541925907135 -0.01810241304337978
v  6.524149417877197 -0.0412541925907135 -0.01809788309037685
v  -9.949771881103516 -0.0412541925907135 -0.0185318049043417
v  -10.03228187561035 -0.0412541925907135 -0.0185327585786581
v  9.999771118164063 0.04125416278839111 -0.01801729761064053
v  10.0822811126709 0.04125416278839111 -0.0180139597505331
v  -6.556646823883057 0.04125416278839111 -0.01844144426286221
v  -6.474149227142334 0.04125416278839111 -0.01843286119401455
v  6.524149417877197 0.04125416278839111 -0.01809788309037685
v  6.60664701461792 0.04125416278839111 -0.01810241304337978
v  -9.569448471069336 0.04125416278839111 -0.01852226816117764
v  -9.569448471069336 -0.0412541925907135 -0.01852226816117764
v  9.619447708129883 0.04125416278839111 -0.01802731119096279
v  9.619447708129883 -0.0412541925907135 -0.01802731119096279

# 0 UV coordinates

# 1 vertex normals
vn -2.580881118774414e-05 0 1

# Mesh '' with 126 faces
usemtl $Material_0
f  1//1 2//1 3//1
f  4//1 5//1 6//1
f  7//1 8//1 9//1
f  10//1 11//1 12//1
f  12//1 13//1 10//1
f  14//1 15//1 16//1
f  16//1 17//1 14//1
f  18//1 19//1 20//1
f  21//1 22//1 23//1
f  24//1 25//1 26//1
f  26//1 27//1 24//1
f  28//1 29//1 30//1
f  30//1 31//1 28//1
f  32//1 33//1 34//1
f  35//1 36//1 37//1
f  38//1 39//1 40//1
f  41//1 42//1 43//1
f  44//1 45//1 46//1
f  47//1 48//1 49//1
f  50//1 51//1 52//1
f  53//1 54//1 55//1
f  56//1 57//1 58//1
f  59//1 60//1 61//1
f  61//1 62//1 59//1
f  63//1 64//1 65//1
f  65//1 66//1 63//1
f  67//1 68//1 69//1
f  70//1 71//1 72//1
f  73//1 74//1 75//1
f  76//1 77//1 78//1
f  79//1 80//1 81//1
f  81//1 82//1 79//1
f  83//1 84//1 85//1
f  86//1 87//1 88//1
f  89//1 90//1 7//1
f  7//1 9//1 89//1
f  3//1 2//1 90//1
f  90//1 89//1 3//1
f  42//1 41//1 15//1
f  15//1 14//1 42//1
f  6//1 5//1 1//1
f  1//1 3//1 6//1
f  20//1 19//1 91//1
f  91//1 92//1 20//1
f  92//1 91//1 4//1
f  4//1 6//1 92//1
f  93//1 94//1 21//1
f  21//1 23//1 93//1
f  47//1 49//1 10//1
f  10//1 13//1 47//1
f  46//1 45//1 28//1
f  28//1 31//1 46//1
f  53//1 55//1 14//1
f  14//1 17//1 53//1
f  95//1 96//1 18//1
f  18//1 20//1 95//1
f  23//1 22//1 97//1
f  97//1 98//1 23//1
f  98//1 97//1 35//1
f  35//1 37//1 98//1
f  37//1 36//1 38//1
f  38//1 40//1 37//1
f  40//1 39//1 99//1
f  99//1 100//1 40//1
f  100//1 99//1 32//1
f  32//1 34//1 100//1
f  13//1 12//1 41//1
f  41//1 43//1 13//1
f  24//1 27//1 44//1
f  44//1 46//1 24//1
f  101//1 49//1 48//1
f  48//1 102//1 101//1
f  27//1 26//1 50//1
f  50//1 52//1 27//1
f  103//1 104//1 54//1
f  54//1 53//1 103//1
f  29//1 28//1 56//1
f  56//1 58//1 29//1
f  67//1 69//1 48//1
f  48//1 47//1 67//1
f  72//1 71//1 66//1
f  66//1 65//1 72//1
f  73//1 75//1 57//1
f  57//1 56//1 73//1
f  78//1 77//1 62//1
f  62//1 61//1 78//1
f  60//1 59//1 68//1
f  68//1 67//1 60//1
f  52//1 51//1 70//1
f  70//1 72//1 52//1
f  64//1 63//1 74//1
f  74//1 73//1 64//1
f  55//1 54//1 76//1
f  76//1 78//1 55//1
f  83//1 85//1 69//1
f  69//1 68//1 83//1
f  86//1 88//1 75//1
f  75//1 74//1 86//1
f  71//1 70//1 85//1
f  85//1 84//1 71//1
f  77//1 76//1 88//1
f  88//1 87//1 77//1
f  84//1 83//1 80//1
f  80//1 79//1 84//1
f  87//1 86//1 82//1
f  82//1 81//1 87//1
f  8//1 105//1 106//1
f  106//1 9//1 8//1
f  33//1 107//1 108//1
f  108//1 34//1 33//1
f  109//1 110//1 51//1
f  51//1 50//1 109//1
f  57//1 111//1 112//1
f  112//1 58//1 57//1
f  113//1 94//1 105//1
f  105//1 114//1 113//1
f  105//1 94//1 93//1
f  93//1 106//1 105//1
f  107//1 96//1 95//1
f  95//1 108//1 107//1
f  109//1 101//1 102//1
f  102//1 110//1 109//1
f  111//1 104//1 103//1
f  103//1 112//1 111//1
f  115//1 116//1 96//1
f  96//1 107//1 115//1

